PathFileType	4	(X/Y/Z)	E:\Qualisys_Data\Carbon_Farble_Plate\Data\Amateur_Runner\S14\T2\S14T2V26_c3d.trc
DataRate	CameraRate	NumFrames	NumMarkers	Units	OrigDataRate	OrigDataStartFrame	OrigNumFrames
200.000000	200.000000	4	39	mm	200.000000	0	296
Frame#	Time	LSHO			RSHO			LICST			RICST			LASIS			LHEEL			RASIS			LTROC			RTROC			SACR			LTH1			LSK4			LTH2			LTH3			RHM5			LSK2			LTH4			RTH1			LTOE			RTH2			RTH3			RTH4			LLEP			RLEP			LSK1			LSK3			RSK1			LHM5			RSK2			LFT1			RSK3			RSK4			LLME			RLME			RTOE			RHEEL			RFT1			RFT2			LFT2			
		X1	Y1	Z1	X2	Y2	Z2	X3	Y3	Z3	X4	Y4	Z4	X5	Y5	Z5	X6	Y6	Z6	X7	Y7	Z7	X8	Y8	Z8	X9	Y9	Z9	X10	Y10	Z10	X11	Y11	Z11	X12	Y12	Z12	X13	Y13	Z13	X14	Y14	Z14	X15	Y15	Z15	X16	Y16	Z16	X17	Y17	Z17	X18	Y18	Z18	X19	Y19	Z19	X20	Y20	Z20	X21	Y21	Z21	X22	Y22	Z22	X23	Y23	Z23	X24	Y24	Z24	X25	Y25	Z25	X26	Y26	Z26	X27	Y27	Z27	X28	Y28	Z28	X29	Y29	Z29	X30	Y30	Z30	X31	Y31	Z31	X32	Y32	Z32	X33	Y33	Z33	X34	Y34	Z34	X35	Y35	Z35	X36	Y36	Z36	X37	Y37	Z37	X38	Y38	Z38	X39	Y39	Z39	

1	0	-2696.963623046875	1491.629272460938	-506.7805480957031	-2755.29833984375	1490.026489257812	-224.7239685058594	-2749.490966796875	1035.901733398438	-503.1818237304688	-2739.012451171875	1039.17724609375	-229.1402587890625	-2718.3505859375	978.9501342773438	-482.1470947265625	-3355.691162109375	415.9700317382812	-370.5308227539062	-2712.3779296875	997.5046997070312	-250.8116760253906	-2873.5771484375	945.6670532226562	-522.5875854492188	-2840.142822265625	922.6405639648438	-190.85546875	-2881.052490234375	1048.618041992188	-373.8211364746094	-2906.2421875	714.2409057617188	-521.032958984375	-3212.14404296875	509.9453430175781	-456.5227966308594	-2971.9912109375	746.9288940429688	-490.9327087402344	-2938.23876953125	621.5538940429688	-499.7087097167969	-2433.156494140625	149.6925201416016	-185.362548828125	-3130.93359375	564.3020629882812	-476.2091979980469	-3006.900390625	655.9751586914062	-473.3403015136719	-2633.923095703125	751.0397338867188	-197.818603515625	-3344.464111328125	164.1417999267578	-431.8614807128906	-2705.45458984375	723.023681640625	-186.0034942626953	-2594.093505859375	661.4412231445312	-220.7833557128906	-2669.99365234375	628.0838623046875	-203.9191436767578	-3021.441162109375	582.8831787109375	-486.0384216308594	-2618.720458984375	574.825439453125	-205.1339721679688	-3086.578857421875	496.2802124023438	-488.1100158691406	-3171.806396484375	441.4213562011719	-473.7997436523438	-2582.6298828125	458.8354797363281	-198.3312225341797	-3382.432861328125	235.6526336669922	-479.7964782714844	-2667.225830078125	440.1678466796875	-203.0785675048828	-3378.67822265625	399.1107482910156	-346.0870361328125	-2566.17919921875	356.3836059570312	-206.6359405517578	-2646.7333984375	345.1154174804688	-210.3395385742188	-3336.289306640625	378.21240234375	-443.0033569335938	-2568.409912109375	174.2306060791016	-222.1181030273438	-2358.757080078125	195.9327239990234	-238.4219818115234	-2612.05224609375	127.2498931884766	-280.0731506347656	-2582.096435546875	106.1827011108398	-307.17578125	-2600.706787109375	101.0451507568359	-253.9780731201172	-3392.510986328125	411.8347473144531	-397.068603515625
2	0.005	-2676.814208984375	1490.7041015625	-505.9711608886719	-2735.11474609375	1488.785034179688	-223.7655639648438	-2728.816650390625	1035.53564453125	-502.7177429199219	-2717.61328125	1037.615844726562	-229.2053375244141	-2697.025390625	978.365478515625	-481.7733154296875	-3337.83349609375	426.3602905273438	-369.7376403808594	-2692.425048828125	995.4603881835938	-251.2093811035156	-2851.854736328125	944.1171264648438	-522.48095703125	-2818.630859375	920.2046508789062	-190.3973236083984	-2860.662353515625	1047.183715820312	-373.2826232910156	-2882.89794921875	711.8746948242188	-522.0475463867188	-3190.602294921875	515.3071899414062	-455.4544982910156	-2949.5078125	745.1741943359375	-491.7373352050781	-2914.448974609375	619.6097412109375	-499.8183898925781	-2403.5439453125	153.28955078125	-184.5276947021484	-3108.2900390625	567.3753051757812	-476.8127746582031	-2983.453369140625	653.6279907226562	-473.8114929199219	-2616.319091796875	745.7754516601562	-197.2060699462891	-3333.777099609375	173.3554077148438	-431.1524963378906	-2687.192626953125	718.697021484375	-184.3681640625	-2577.800537109375	656.4564208984375	-220.7783660888672	-2653.22265625	623.5883178710938	-203.1975555419922	-2997.871826171875	581.5842895507812	-486.6123962402344	-2601.513671875	570.4901733398438	-204.8408355712891	-3066.05224609375	497.3481140136719	-488.5379638671875	-3153.0302734375	445.5238342285156	-473.52294921875	-2562.44189453125	456.7565612792969	-196.5916595458984	-3369.476806640625	247.2234954833984	-479.4853210449219	-2646.260009765625	436.3424987792969	-203.7276000976562	-3360.669189453125	409.6405334472656	-345.612548828125	-2544.127685546875	355.3572387695312	-204.6128387451172	-2623.522705078125	342.5143737792969	-211.4855804443359	-3319.471435546875	388.1629943847656	-442.8500366210938	-2539.826416015625	172.3356628417969	-222.1738128662109	-2330.93798828125	202.1387939453125	-237.5460357666016	-2581.671630859375	123.818359375	-279.8544311523438	-2551.398193359375	104.5910873413086	-307.0968322753906	-2569.973876953125	97.47119903564452	-253.7512969970703	-3373.68701171875	423.3337707519531	-396.7083129882812
3	0.01	-2655.791748046875	1489.400268554688	-504.9871215820312	-2714.92333984375	1487.509765625	-223.05859375	-2708.46826171875	1034.918212890625	-502.3755798339844	-2697.72998046875	1035.850952148438	-228.7217407226562	-2676.2451171875	977.8483276367188	-481.5562438964844	-3318.008056640625	435.5738220214844	-368.7951049804688	-2671.961181640625	993.3717651367188	-250.9779663085938	-2830.10400390625	942.4334106445312	-522.871826171875	-2797.786865234375	917.8322143554688	-190.8313598632812	-2840.225341796875	1045.812622070312	-372.933349609375	-2858.849365234375	710.061279296875	-521.8895263671875	-3168.54052734375	519.8838500976562	-456.0066223144531	-2926.195068359375	742.231689453125	-492.6357116699219	-2891.362060546875	617.5860595703125	-500.8985290527344	-2375.73486328125	156.3553009033203	-184.1265411376953	-3083.8349609375	568.705078125	-476.5760498046875	-2960.13134765625	651.275390625	-474.7868347167969	-2597.16162109375	741.7265014648438	-196.2312164306641	-3321.609619140625	183.0325164794922	-431.0238037109375	-2670.372314453125	714.3695678710938	-182.9615936279297	-2561.3408203125	650.9862060546875	-220.9007263183594	-2636.96435546875	619.379638671875	-202.2061614990234	-2973.831787109375	579.4995727539062	-487.059814453125	-2584.996826171875	565.7557373046875	-205.5453491210938	-3044.478271484375	497.6715087890625	-489.178955078125	-3133.71044921875	449.0831604003906	-474.2054138183594	-2542.06689453125	454.6209106445312	-197.3230438232422	-3354.396484375	256.9647827148438	-478.1345520019531	-2624.97265625	432.6877136230469	-204.4379730224609	-3341.738037109375	420.12646484375	-344.4250183105469	-2520.425048828125	353.4382019042969	-206.5762329101562	-2600.5400390625	338.98583984375	-211.6719055175781	-3301.273193359375	396.9967346191406	-442.1835632324219	-2513.30126953125	171.1487884521484	-222.6822509765625	-2305.215576171875	206.3651580810547	-236.9519653320312	-2552.821533203125	121.0087738037109	-279.8841857910156	-2522.206787109375	102.4116821289062	-307.1609802246094	-2541.46044921875	95.82089996337892	-253.928466796875	-3354.535888671875	433.6167907714844	-395.5525512695312
4	0.015	-2635.502685546875	1488.479736328125	-503.9568176269531	-2694.590087890625	1485.816040039062	-221.8754425048828	-2687.643310546875	1033.656616210938	-502.1405029296875	-2676.69140625	1033.68994140625	-228.8603820800781	-2654.96240234375	976.906005859375	-481.0219116210938	-3298.412109375	446.2057800292969	-368.3998718261719	-2650.881103515625	992.4803466796876	-251.1999816894531	-2808.28662109375	940.4072875976562	-523.002685546875	-2777.41259765625	915.3609008789062	-190.7894439697266	-2819.878173828125	1043.674194335938	-372.4385070800781	-2835.51953125	707.419189453125	-521.8233642578125	-3145.4697265625	523.6947631835938	-455.5424194335938	-2903.17919921875	739.5933837890625	-493.4398498535156	-2867.11572265625	614.5726318359375	-501.4571533203125	-2351.06884765625	158.0048522949219	-184.4200592041016	-3059.51025390625	569.6217041015625	-477.615478515625	-2936.183837890625	647.76611328125	-475.3985900878906	-2579.20458984375	736.9109497070312	-195.1298522949219	-3306.788818359375	193.1918792724609	-429.4912414550781	-2652.716552734375	709.6096801757812	-181.2332763671875	-2544.663818359375	646.3966064453125	-221.0189819335938	-2619.730712890625	614.8248291015625	-201.5393371582031	-2949.818115234375	577.331787109375	-487.8715515136719	-2568.360107421875	561.2047119140625	-206.2084197998047	-3022.63134765625	497.5723571777344	-489.6415405273438	-3113.102294921875	451.7435302734375	-473.6365356445312	-2521.15966796875	453.5728759765625	-199.2979888916016	-3339.798828125	268.5841369628906	-477.62890625	-2603.8271484375	429.1535034179688	-204.5598449707031	-3321.750732421875	430.9310607910156	-343.5545043945312	-2499.374267578125	352.3816223144531	-207.4292907714844	-2577.6796875	336.4429016113281	-212.6959686279297	-3282.308349609375	406.3347778320312	-441.8795776367188	-2488.130859375	169.8705902099609	-222.7843627929688	-2281.200439453125	210.0584259033203	-236.4182891845703	-2526.412841796875	119.0240783691406	-281.0934753417969	-2495.1826171875	101.0000228881836	-307.6851806640625	-2514.478515625	93.97433471679688	-255.2835998535156	-3334.911376953125	446.5121154785156	-396.2301025390625
